<?xml version="1.0" standalone="no"?>
<!DOCTYPE svg PUBLIC "-//W3C//DTD SVG 20010904//EN"
 "http://www.w3.org/TR/2001/REC-SVG-20010904/DTD/svg10.dtd">
<svg version="1.0" xmlns="http://www.w3.org/2000/svg"
 width="50" height="50" viewBox="0 0 198.000000 198.000000"
 preserveAspectRatio="xMidYMid meet">

<g transform="translate(0.000000,198.000000) scale(0.100000,-0.100000)"
fill="#000000" stroke="none">
<path d="M1530 1925 c0 -22 -69 -94 -111 -115 -20 -11 -69 -28 -109 -39 l-72
-20 -76 26 c-90 30 -230 37 -322 14 -209 -50 -383 -223 -434 -432 -31 -125
-15 -282 40 -391 27 -53 28 -53 -55 -79 -35 -11 -47 -18 -31 -18 14 0 66 16
115 35 181 71 241 92 282 99 40 6 43 5 48 -19 16 -78 17 -73 -17 -80 -43 -8
-68 -33 -68 -67 0 -43 37 -62 108 -57 103 7 192 69 192 134 0 54 -75 105 -152
103 l-43 -1 54 -9 c66 -11 107 -35 121 -70 14 -34 -3 -74 -27 -65 -39 15 -104
28 -117 23 -20 -8 -40 81 -33 148 7 72 37 135 86 184 40 40 40 52 -1 30 -11
-6 -18 -7 -14 -1 12 20 80 44 206 71 72 16 134 32 138 36 8 9 -204 1 -233 -9
-11 -3 -5 1 13 9 21 10 85 19 170 25 128 8 179 18 227 47 30 17 16 21 -45 12
-30 -4 -91 -8 -135 -9 -71 0 -127 -8 -190 -26 -13 -4 -17 -3 -10 4 23 22 88
34 223 42 168 10 216 27 269 98 37 49 47 88 15 59 -20 -19 -121 -67 -140 -67
-7 0 20 17 60 38 62 31 77 44 96 82 12 24 22 59 22 78 l0 33 -51 -53 c-45 -47
-47 -48 -15 -9 47 58 59 104 45 170 -10 47 -29 71 -29 36z m-407 -151 c34 -9
66 -18 70 -21 17 -10 -18 -23 -48 -17 -18 3 -25 2 -18 -3 9 -7 0 -18 -31 -40
-28 -20 -49 -44 -57 -67 -17 -46 -26 -46 -21 -1 5 42 -2 43 -50 10 -35 -23
-51 -54 -61 -115 -2 -14 -5 -2 -6 25 l-2 50 -38 -41 c-30 -31 -41 -54 -47 -90
l-8 -49 -6 35 -7 35 -22 -49 c-19 -40 -22 -61 -19 -119 4 -70 4 -70 -12 -36
l-15 34 -3 -55 c-4 -59 10 -120 35 -159 15 -24 16 -23 34 46 50 197 214 394
392 471 45 19 31 6 -30 -29 -162 -93 -310 -309 -343 -501 -11 -61 -15 -68 -35
-68 -29 0 -141 -34 -217 -66 -32 -13 -62 -24 -68 -24 -30 0 -90 195 -90 290 0
250 186 490 430 554 74 20 218 20 293 0z m-293 -896 c0 -7 10 -24 21 -38 18
-22 20 -22 16 -5 -3 11 -8 29 -13 39 -8 21 -9 21 91 -5 l39 -11 -24 -19 c-59
-45 -167 -62 -208 -33 -26 18 -28 41 -5 66 19 21 83 25 83 6z"/>
<path d="M893 1753 c9 -2 23 -2 30 0 6 3 -1 5 -18 5 -16 0 -22 -2 -12 -5z"/>
<path d="M1033 1753 c9 -2 23 -2 30 0 6 3 -1 5 -18 5 -16 0 -22 -2 -12 -5z"/>
<path d="M790 1730 c-18 -12 -2 -12 25 0 13 6 15 9 5 9 -8 0 -22 -4 -30 -9z"/>
<path d="M702 1689 c-56 -32 -162 -132 -182 -171 -7 -13 3 -5 21 17 53 64 115
118 177 152 31 18 53 33 47 33 -5 0 -34 -14 -63 -31z"/>
<path d="M490 1469 c-7 -11 -10 -23 -7 -25 2 -2 9 7 15 21 14 30 7 33 -8 4z"/>
<path d="M466 1415 c-9 -26 -7 -32 5 -12 6 10 9 21 6 23 -2 3 -7 -2 -11 -11z"/>
<path d="M451 1364 c0 -11 3 -14 6 -6 3 7 2 16 -1 19 -3 4 -6 -2 -5 -13z"/>
<path d="M441 1324 c0 -11 3 -14 6 -6 3 7 2 16 -1 19 -3 4 -6 -2 -5 -13z"/>
<path d="M433 1220 c0 -41 2 -58 4 -37 2 20 2 54 0 75 -2 20 -4 3 -4 -38z"/>
<path d="M441 1114 c0 -11 3 -14 6 -6 3 7 2 16 -1 19 -3 4 -6 -2 -5 -13z"/>
<path d="M451 1074 c0 -11 3 -14 6 -6 3 7 2 16 -1 19 -3 4 -6 -2 -5 -13z"/>
<path d="M471 1015 c0 -5 8 -26 19 -45 11 -19 19 -30 19 -25 0 6 -8 26 -19 45
-11 19 -19 31 -19 25z"/>
<path d="M1493 1485 c3 -11 15 -47 27 -80 28 -75 38 -229 20 -306 -19 -82 -64
-175 -117 -240 l-48 -59 -70 5 c-38 3 -116 17 -173 30 -57 14 -109 25 -115 25
-30 -1 28 -20 138 -45 98 -23 145 -28 255 -29 128 -1 138 0 197 28 34 15 70
38 80 49 l18 21 -30 -21 c-49 -34 -102 -52 -182 -62 -105 -13 -111 -8 -63 47
123 139 167 361 109 547 -19 60 -56 132 -46 90z"/>
<path d="M1456 1467 c3 -10 9 -15 12 -12 3 3 0 11 -7 18 -10 9 -11 8 -5 -6z"/>
<path d="M1470 1435 c0 -5 5 -17 10 -25 5 -8 10 -10 10 -5 0 6 -5 17 -10 25
-5 8 -10 11 -10 5z"/>
<path d="M1513 1280 c0 -25 2 -35 4 -22 2 12 2 32 0 45 -2 12 -4 2 -4 -23z"/>
<path d="M1512 1145 c0 -16 2 -22 5 -12 2 9 2 23 0 30 -3 6 -5 -1 -5 -18z"/>
<path d="M1486 1045 c-9 -26 -7 -32 5 -12 6 10 9 21 6 23 -2 3 -7 -2 -11 -11z"/>
<path d="M1457 975 c-9 -19 -15 -35 -12 -35 7 0 37 61 33 66 -3 2 -12 -12 -21
-31z"/>
<path d="M1417 908 c-8 -13 -29 -38 -46 -55 -16 -18 -26 -33 -22 -33 8 0 68
70 85 98 13 21 -1 13 -17 -10z"/>
<path d="M530 904 c0 -3 21 -28 48 -56 46 -50 154 -128 176 -128 6 0 -14 14
-44 32 -30 17 -83 59 -117 94 -35 34 -63 60 -63 58z"/>
<path d="M490 891 c0 -18 107 -124 163 -160 98 -65 202 -95 322 -95 111 0 183
17 274 64 62 32 112 69 95 70 -6 0 -22 -8 -35 -19 -81 -63 -208 -101 -335
-101 -166 0 -286 51 -406 171 -43 43 -78 74 -78 70z"/>
<path d="M1257 761 c-41 -26 -46 -36 -10 -17 17 9 35 20 38 26 8 13 6 12 -28
-9z"/>
<path d="M1180 720 c-8 -5 -10 -10 -5 -10 6 0 17 5 25 10 8 5 11 10 5 10 -5 0
-17 -5 -25 -10z"/>
<path d="M780 710 c8 -5 20 -10 25 -10 6 0 3 5 -5 10 -8 5 -19 10 -25 10 -5 0
-3 -5 5 -10z"/>
<path d="M828 693 c7 -3 16 -2 19 1 4 3 -2 6 -13 5 -11 0 -14 -3 -6 -6z"/>
<path d="M868 683 c6 -2 18 -2 25 0 6 3 1 5 -13 5 -14 0 -19 -2 -12 -5z"/>
<path d="M1078 683 c7 -3 16 -2 19 1 4 3 -2 6 -13 5 -11 0 -14 -3 -6 -6z"/>
<path d="M937 673 c18 -2 50 -2 70 0 21 2 7 4 -32 4 -38 0 -55 -2 -38 -4z"/>
<path d="M920 359 c-14 -4 -21 -7 -17 -8 9 -1 -55 -121 -64 -121 -9 0 -59 99
-59 116 0 10 -13 14 -47 14 -43 0 -45 -1 -31 -17 9 -10 32 -51 52 -90 29 -59
36 -84 36 -133 0 -33 -4 -60 -10 -60 -5 0 -10 -4 -10 -10 0 -5 23 -10 52 -10
40 0 49 3 40 12 -7 7 -12 39 -12 74 0 54 5 72 41 136 23 40 48 78 56 85 19 15
4 22 -27 12z"/>
<path d="M1361 352 c-69 -38 -98 -161 -57 -240 48 -93 193 -95 241 -2 21 41
-3 42 -27 1 -23 -41 -87 -61 -122 -38 -34 22 -50 78 -44 152 7 76 29 115 68
115 40 0 57 -24 43 -61 -10 -25 -9 -29 6 -29 28 0 61 30 61 55 0 53 -106 82
-169 47z"/>
<path d="M1692 351 c-50 -32 -72 -76 -72 -146 0 -110 57 -170 154 -162 42 4
55 10 83 41 35 38 41 56 20 56 -8 0 -19 -11 -25 -26 -17 -36 -76 -59 -112 -44
-38 16 -55 61 -55 142 0 81 24 121 73 126 27 3 32 -1 38 -24 4 -15 2 -35 -5
-46 -9 -15 -8 -18 10 -18 56 0 80 58 39 95 -31 28 -108 31 -148 6z"/>
<path d="M102 343 c9 -10 32 -51 52 -90 29 -58 36 -84 36 -131 0 -32 -5 -63
-12 -70 -9 -9 0 -12 42 -12 42 0 51 3 42 12 -7 7 -12 40 -12 76 0 56 5 72 41
135 23 40 49 78 57 85 14 10 11 12 -16 12 -18 0 -31 -4 -29 -9 3 -10 -55 -121
-64 -121 -3 0 -19 29 -35 65 l-29 64 -44 1 c-41 0 -43 -1 -29 -17z"/>
<path d="M418 348 c15 -15 17 -274 2 -283 -28 -17 -1 -25 88 -25 90 0 122 8
122 30 0 3 -31 4 -70 2 l-70 -4 0 71 0 71 33 0 c18 0 38 -5 45 -12 9 -9 12 -4
12 22 0 26 -3 31 -12 22 -7 -7 -27 -12 -45 -12 l-33 0 0 55 0 55 51 0 c28 0
60 -5 71 -11 18 -10 20 -9 15 6 -4 9 -7 19 -7 21 0 2 -48 4 -107 4 -83 0 -104
-3 -95 -12z"/>
<path d="M1018 348 c11 -14 10 -273 -1 -284 -16 -16 -4 -24 36 -24 l42 0 0
160 0 160 -44 0 c-33 0 -41 -3 -33 -12z"/>
<path d="M1164 85 c-10 -25 4 -47 28 -43 17 2 24 11 26 31 3 23 0 27 -23 27
-14 0 -28 -7 -31 -15z"/>
</g>
</svg>
